<?xml version="1.0" encoding="UTF-8" standalone="no"?>
<svg
   version="1.1"
   id="Layer_1"
   x="0px"
   y="0px"
   width="100%"
   viewBox="0 0 1024 1024"
   enable-background="new 0 0 1024 1024"
   xml:space="preserve"
   sodipodi:docname="favicon.svg"
   inkscape:export-filename="favicon.png"
   inkscape:export-xdpi="96"
   inkscape:export-ydpi="96"
   inkscape:version="1.3-beta (cedbd6c6ff, 2023-05-28)"
   xmlns:inkscape="http://www.inkscape.org/namespaces/inkscape"
   xmlns:sodipodi="http://sodipodi.sourceforge.net/DTD/sodipodi-0.dtd"
   xmlns="http://www.w3.org/2000/svg"
   xmlns:svg="http://www.w3.org/2000/svg"><defs
   id="defs188" /><sodipodi:namedview
   id="namedview188"
   pagecolor="#ffffff"
   bordercolor="#000000"
   borderopacity="0.25"
   inkscape:showpageshadow="2"
   inkscape:pageopacity="0.0"
   inkscape:pagecheckerboard="0"
   inkscape:deskcolor="#d1d1d1"
   inkscape:zoom="0.28284272"
   inkscape:cx="816.70831"
   inkscape:cy="761.90754"
   inkscape:window-width="1920"
   inkscape:window-height="1051"
   inkscape:window-x="-9"
   inkscape:window-y="-9"
   inkscape:window-maximized="1"
   inkscape:current-layer="Layer_1" />&#10;<rect
   style="display:inline;opacity:1;fill:#ffffff;fill-opacity:1;stroke:#ffffff;stroke-width:10;stroke-linecap:round;stroke-linejoin:round;stroke-opacity:1;paint-order:markers fill stroke"
   id="rect2"
   width="1022.9781"
   height="1022.9232"
   x="1.0218329"
   y="1.0767649"
   sodipodi:insensitive="true" /><path
   fill="#131312"
   opacity="1"
   stroke="none"
   d="M 0,1023.9232 V 0 h 1023.8465 v 1023.9232 c -132.65011,0 -265.30257,0 -398.41298,-0.4159 -0.97596,-4.1085 0.4217,-32.53809 1.77448,-48.73872 3.26774,-39.13383 -0.15666,-80.71165 15.29847,-116.81253 22.49164,-52.53712 22.40754,-86.45573 107.64195,-133.44444 85.2344,-46.9887 98.05215,-47.4035 120.3879,-88.92529 22.33575,-41.52179 17.7638,-55.13675 4.82856,-77.59122 -11.63369,-20.19509 -39.33161,-29.18233 -62.54587,-31.25176 -42.19371,-3.76135 -83.95342,16.8926 -121.93686,35.79829 -18.97097,9.44252 -52.72643,5.2323 -60.58689,-13.94258 -11.79842,-28.78117 18.10812,-72.20265 35.14313,-104.91393 18.29983,-35.14003 55.08213,-59.13437 70.69779,-95.54668 11.14521,-25.9882 19.66967,-55.73866 14.62289,-83.56189 -3.39851,-18.73621 -12.59741,-39.52665 -28.98309,-49.22742 -9.83771,-5.8242 -21.38617,-6.83163 -32.44964,-6.98901 -8.19505,-0.11658 -16.36804,1.99324 -24.17399,4.49117 -20.93863,6.70044 -40.75957,38.71906 -59.79142,27.83675 -12.4428,-7.11472 -16.91543,-12.79951 -18.06918,-76.03535 -0.53174,-29.14438 -4.83441,-47.40313 -18.04716,-65.989707 -11.60803,-16.329196 -30.31428,-28.417456 -49.54564,-34.02543 -18.65988,-5.441329 -40.12128,-0.111365 -56.18933,15.586921 -19.01562,18.578021 -22.06726,49.484786 -31.02309,75.020466 -9.08873,25.91461 -5.95647,62.1782 -29.29222,76.13931 -23.58769,14.11184 -56.64211,-21.33979 -81.81452,-10.30018 -23.99734,10.52427 -42.60703,37.9962 -45.60915,64.02733 -3.77685,32.74878 18.94234,64.27601 37.53729,91.49687 14.19631,20.78176 36.59812,34.56032 54.64903,52.09832 10.9874,10.6752 34.34553,20.2623 32.65715,32.33662 -1.68839,12.07431 -17.74546,8.12971 -27.08178,7.44025 -26.61855,-1.96569 -47.69526,-24.64823 -73.25863,-32.32449 -21.40526,-6.42765 -44.43465,-16.66875 -66.10574,-11.20399 -22.38467,5.6447 -45.6008,21.32107 -54.62996,42.56749 -10.92312,25.70306 -3.9923,58.49238 8.79554,83.32044 11.17722,21.70099 35.62616,33.47361 54.82637,48.54725 28.89991,22.68865 65.00291,36.4357 90.57223,62.82111 22.1563,22.86346 39.97866,50.64974 51.94387,80.15352 18.74321,46.21696 24.99365,97.06133 29.07245,146.76725 2.65986,32.41409 0.32107,65.17743 -3.1025,97.51978 -1.29341,12.21879 -3.15295,28.41088 -6.5673,36.27138 -1.49051,2.9247 -405.07866,1 -405.07866,1 z"
   id="path1"
   style="display:inline;opacity:1;mix-blend-mode:normal;fill:#000000;fill-opacity:1;stroke:#000000;stroke-width:10;stroke-linecap:round;stroke-linejoin:round;stroke-dasharray:none;stroke-dashoffset:0;stroke-opacity:1;paint-order:markers fill stroke"
   inkscape:label="fondo negro"
   sodipodi:nodetypes="cccccaaccaassaaasaascassaaaaaacaaaaaaaaaacc"
   sodipodi:insensitive="true" /><rect
   style="display:none;opacity:0.392276;fill:#ffffff;fill-opacity:1;stroke:#ffffff;stroke-width:10;stroke-linecap:round;stroke-linejoin:round;stroke-opacity:1;paint-order:markers fill stroke"
   id="rect1"
   width="1024.8683"
   height="1025"
   x="0"
   y="-99.222595"
   sodipodi:insensitive="true"
   inkscape:label="filtro transparente" />&#10;<path
   fill="#EDEDEC"
   opacity="1"
   stroke="none"
   d="m 576,1025 c -36.02087,0 -72.04178,0 -108.51868,-0.4333 0.86808,-44.47777 2.19214,-88.52221 3.01981,-130.02413 0.82767,-41.50192 1.16327,-69.52225 1.16626,-92.51004 0.003,-22.98779 -0.31119,-37.0058 -0.84633,-61.50454 -0.53514,-24.49875 -0.74654,-30.39975 -2.26973,-35.92753 -3.19553,-11.59674 -5.11307,-23.44409 -10.36221,-34.63714 -6.05133,-12.90363 -13.64765,-24.82324 -24.12482,-33.67151 -12.01645,-10.14826 -26.0845,-18.01965 -39.79239,-25.96369 -10.60428,-6.14538 -22.03088,-10.8703 -37.47426,-17.58163 -15.44337,-6.71133 -29.70634,-11.40317 -54.1927,-21.28445 -24.48636,-9.88129 -35.8952,-17.62128 -46.84489,-25.6681 -9.19829,-6.75964 -16.82744,-15.77709 -24.64628,-24.26049 -9.89611,-10.73719 -12.43364,-31.80497 -0.88861,-44.16855 6.30461,-6.75162 22.45317,-14.65662 33.97432,-7.58093 7.97434,4.89733 15.23099,10.97976 22.71006,16.66198 6.5896,5.00644 12.72369,10.68262 37.23702,24.98507 24.51334,14.30244 36.71171,21.04628 49.46772,26.39234 15.48034,6.4878 30.85293,12.81769 45.23218,21.75049 9.03585,5.61334 19.42904,9.23993 29.53302,12.86719 6.88137,2.47046 12.23211,0.1615 21.62133,-8.83005 9.38922,-8.99155 9.64974,-22.0012 10.87461,-34.51478 1.9112,-19.52544 0.90818,-34.49573 0.26163,-60.59359 -0.64655,-26.09787 -1.51001,-43.72633 -16.51401,-57.00825 -13.20271,-11.68735 -41.99854,-18.38787 -54.81442,-25.67022 -10.78488,-6.1283 -21.96915,-11.92404 -31.62577,-19.57248 -11.64389,-9.22241 -22.95074,-19.34226 -32.39968,-30.73545 -10.07047,-12.14257 -20.42695,-24.70977 -25.78003,-39.91076 -5.4076,-15.35575 3.54919,-28.35499 14.70848,-31.80036 12.88987,-3.97967 29.09358,12.19495 34.74003,20.76078 5.89096,8.93674 12.79721,17.20938 19.34519,25.70639 6.15625,7.98871 14.6987,13.27652 22.17273,19.77536 12.1679,10.58026 44.80337,34.94877 56.62206,25.58347 7.6055,-6.02672 10.43275,-18.98475 11.28715,-42.3754 0.8544,-23.39066 0.20166,-45.65924 0.2008,-67.92852 -9.1e-4,-23.26771 0.62381,-46.53476 0.82547,-69.80339 0.20117,-23.2191 -1.88454,-51.78513 9.23041,-67.02208 6.50458,-8.916807 19.99826,-14.462839 30.79437,-12.168705 9.25166,1.965945 15.82327,11.707975 19.86853,20.257475 7.1027,15.01127 4.94178,13.40272 5.37921,49.52922 0.43744,36.12649 0.0568,53.58094 1.69328,110.67277 1.63652,57.09183 2.28703,66.24451 4.12187,75.15323 1.64398,7.98184 4.84796,9.89209 18.85083,8.29973 14.00287,-1.59236 25.31488,-12.3492 36.60089,-22.61318 7.76679,-7.0635 20.74284,-21.65112 29.53208,-33.74003 9.49968,-13.06609 15.49234,-31.51723 24.84646,-41.60952 8.07056,-8.70732 16.49426,-13.50885 28.71356,-11.39558 14.8938,2.57579 28.44068,19.88533 25.05768,35.21346 -3.72967,16.89883 -12.10834,31.41931 -22.0141,45.08764 -8.45446,11.66586 -17.61157,22.86933 -27.06225,33.75251 -8.58856,9.89034 -17.61896,19.46685 -27.12622,28.47262 -12.85529,12.17706 -27.10041,22.95496 -39.36499,35.66858 -12.37818,12.83148 -20.04718,26.87864 -25.29576,42.50996 -9.63358,28.6907 -9.65273,59.97265 -10.06787,90.23467 -0.2496,18.19464 2.03911,29.64283 4.56267,54.39802 2.52356,24.75519 4.68805,32.32739 8.29926,38.74243 4.36706,7.75763 6.8983,19.50039 14.88829,14.70211 5.65229,-3.39441 11.04761,-7.2273 39.32498,-23.65836 28.27738,-16.43106 47.83237,-25.38235 67.46744,-34.14303 8.98224,-4.00757 18.38001,-7.07794 39.67829,-18.15265 21.29828,-11.07471 37.04797,-22.38336 55.09533,-30.09375 15.11103,-6.45594 36.66919,-1.46106 45.13172,11.4469 3.48864,5.32116 7.12463,12.52832 6.3529,18.29693 -2.55206,19.07746 -13.45593,33.65839 -29.52923,44.08283 -8.18647,5.30945 -16.62976,10.32763 -25.35572,14.67779 -16.6156,8.28327 -33.54705,15.93116 -56.12805,25.68754 -22.58099,9.75637 -42.80261,18.93484 -62.30957,29.70113 -18.6405,10.28803 -37.51709,20.49534 -53.86182,34.0647 -10.56497,8.77102 -21.45988,18.12272 -28.04812,30.17032 -11.10597,20.30896 -14.3306,43.26468 -17.30679,67.25058 -3.53949,28.52582 -2.8501,57.18079 -1.55195,85.78467 1.51698,33.4214 3.72132,66.81159 5.62733,100.21528 z"
   id="path2"
   inkscape:label="arbol negro"
   style="display:inline;fill:#000000;fill-opacity:1"
   sodipodi:nodetypes="cccccssssccssssscssscscsssssasssscsssaaccscsasssssssaacsscscssssscsaassc"
   sodipodi:insensitive="true" />&#10;&#10;&#10;&#10;&#10;&#10;&#10;&#10;&#10;&#10;&#10;&#10;&#10;&#10;&#10;&#10;&#10;&#10;&#10;&#10;&#10;&#10;&#10;&#10;&#10;&#10;&#10;&#10;&#10;&#10;&#10;&#10;&#10;&#10;&#10;&#10;&#10;&#10;&#10;&#10;&#10;&#10;&#10;&#10;&#10;&#10;&#10;&#10;&#10;&#10;&#10;&#10;&#10;&#10;&#10;&#10;&#10;&#10;&#10;&#10;&#10;&#10;&#10;&#10;&#10;&#10;&#10;&#10;&#10;&#10;&#10;&#10;&#10;&#10;&#10;&#10;&#10;&#10;&#10;&#10;&#10;&#10;&#10;&#10;&#10;&#10;&#10;&#10;&#10;&#10;&#10;&#10;&#10;&#10;&#10;&#10;&#10;&#10;&#10;&#10;&#10;&#10;&#10;&#10;&#10;&#10;&#10;&#10;&#10;&#10;&#10;&#10;&#10;&#10;&#10;&#10;&#10;&#10;&#10;&#10;&#10;&#10;&#10;&#10;&#10;&#10;&#10;&#10;&#10;&#10;&#10;&#10;&#10;&#10;&#10;&#10;&#10;&#10;&#10;&#10;&#10;&#10;&#10;&#10;&#10;&#10;&#10;&#10;&#10;&#10;&#10;&#10;&#10;&#10;&#10;&#10;&#10;&#10;&#10;&#10;&#10;&#10;&#10;&#10;&#10;&#10;&#10;&#10;&#10;&#10;&#10;&#10;&#10;&#10;&#10;&#10;&#10;&#10;&#10;&#10;&#10;&#10;&#10;&#10;&#10;&#10;&#10;</svg>
